<svg width="16" height="16" viewBox="0 0 16 16" fill="none" xmlns="http://www.w3.org/2000/svg">
<path d="M8.00008 1.33331C6.58559 1.33331 5.22904 1.89522 4.22885 2.89541C3.22865 3.8956 2.66675 5.25216 2.66675 6.66665C2.66675 10.2666 7.36675 14.3333 7.56675 14.5066C7.6875 14.6099 7.84118 14.6667 8.00008 14.6667C8.15898 14.6667 8.31266 14.6099 8.43341 14.5066C8.66675 14.3333 13.3334 10.2666 13.3334 6.66665C13.3334 5.25216 12.7715 3.8956 11.7713 2.89541C10.7711 1.89522 9.41457 1.33331 8.00008 1.33331V1.33331ZM8.00008 13.1C6.58008 11.7666 4.00008 8.89331 4.00008 6.66665C4.00008 5.60578 4.42151 4.58836 5.17165 3.83822C5.9218 3.08807 6.93922 2.66665 8.00008 2.66665C9.06095 2.66665 10.0784 3.08807 10.8285 3.83822C11.5787 4.58836 12.0001 5.60578 12.0001 6.66665C12.0001 8.89331 9.42008 11.7733 8.00008 13.1ZM8.00008 3.99998C7.47266 3.99998 6.95709 4.15638 6.51856 4.44939C6.08003 4.74241 5.73824 5.15889 5.5364 5.64616C5.33457 6.13343 5.28176 6.6696 5.38465 7.18689C5.48755 7.70417 5.74152 8.17932 6.11446 8.55226C6.4874 8.9252 6.96256 9.17918 7.47984 9.28207C7.99712 9.38497 8.5333 9.33216 9.02057 9.13033C9.50784 8.92849 9.92432 8.5867 10.2173 8.14817C10.5104 7.70964 10.6667 7.19406 10.6667 6.66665C10.6667 5.9594 10.3858 5.28113 9.8857 4.78103C9.3856 4.28093 8.70733 3.99998 8.00008 3.99998ZM8.00008 7.99998C7.73637 7.99998 7.47859 7.92178 7.25932 7.77527C7.04006 7.62876 6.86916 7.42053 6.76824 7.17689C6.66732 6.93326 6.64092 6.66517 6.69237 6.40653C6.74381 6.14788 6.8708 5.91031 7.05727 5.72384C7.24374 5.53737 7.48132 5.41038 7.73996 5.35893C7.9986 5.30749 8.26669 5.33389 8.51033 5.43481C8.75396 5.53572 8.9622 5.70662 9.10871 5.92589C9.25522 6.14515 9.33341 6.40294 9.33341 6.66665C9.33341 7.02027 9.19294 7.35941 8.94289 7.60946C8.69284 7.8595 8.3537 7.99998 8.00008 7.99998Z" fill="#2B4981"/>
</svg>
