<svg width="16" height="16" viewBox="0 0 16 16" fill="none" xmlns="http://www.w3.org/2000/svg">
<path d="M4.66667 11.4H11.3333V10.1H4.66667V11.4Z" fill="#2B4981"/>
<path d="M11.3333 8.8H4.66667V7.5H11.3333V8.8Z" fill="#2B4981"/>
<path d="M4.66667 6.2H7.33333V4.9H4.66667V6.2Z" fill="#2B4981"/>
<path fill-rule="evenodd" clip-rule="evenodd" d="M4 1C2.89543 1 2 1.87304 2 2.95V12.05C2 13.127 2.89543 14 4 14H12C13.1046 14 14 13.127 14 12.05V5.55C14 3.0371 11.9107 1 9.33333 1H4ZM4 2.3H8.66667V5.55H12.6667V12.05C12.6667 12.409 12.3682 12.7 12 12.7H4C3.63181 12.7 3.33333 12.409 3.33333 12.05V2.95C3.33333 2.59101 3.63181 2.3 4 2.3ZM10 2.36501C11.0742 2.57762 11.9608 3.29389 12.3893 4.25H10V2.36501Z" fill="#2B4981"/>
</svg>
