<svg width="16" height="16" viewBox="0 0 16 16" fill="none" xmlns="http://www.w3.org/2000/svg">
<g clip-path="url(#clip0)">
<path d="M16.3427 14.4105L14.1965 12.2643C14.8116 11.1747 15.1586 9.91654 15.1586 8.57931C15.1586 4.61179 11.9813 1 7.58952 1H7.57676C3.41432 1 0 4.39334 0 8.57931C0 12.5704 3.19727 16.1561 7.57676 16.1561H7.57932C7.58184 16.1561 7.58184 16.1561 7.58442 16.1561C9.23669 16.1561 11.0022 15.5907 12.4612 14.3748L14.4186 16.3322C14.4671 16.3806 14.5334 16.4087 14.5998 16.4087C14.6687 16.4087 14.7325 16.3806 14.7809 16.3322L16.3427 14.7704C16.3912 14.7244 16.4167 14.6581 16.4167 14.5917C16.4167 14.5228 16.3912 14.459 16.3427 14.4105ZM13.8214 11.8892L13.5126 11.5804L14.2859 10.8072C14.1634 11.1823 14.0077 11.5447 13.8214 11.8892ZM14.4415 10.2738C14.4058 10.2407 14.3599 10.2177 14.3114 10.21L12.0223 9.85787C12.0555 9.52354 12.0759 9.1816 12.0835 8.83454C12.0836 8.83428 12.0836 8.83403 12.0836 8.83374H14.6406C14.6406 8.834 14.6406 8.83426 14.6406 8.83454C14.6253 9.32959 14.5564 9.81191 14.4415 10.2738ZM10.167 13.9614C9.52901 14.9209 8.72004 15.5334 7.83451 15.6304C7.83426 15.6304 7.834 15.6304 7.83375 15.6304V11.8075C7.834 11.8075 7.83426 11.8075 7.83451 11.8075C8.54651 11.8331 9.23809 11.9607 9.89394 12.1878L10.167 13.9614ZM2.73825 13.7215C3.08532 13.3923 3.46046 13.1039 3.85856 12.8564C4.28729 13.9103 4.87169 14.7704 5.55561 15.3497C3.95321 14.8919 2.8943 13.8373 2.73825 13.7215ZM7.83375 5.64969C7.834 5.64967 7.83426 5.64969 7.83451 5.64967C8.94206 5.61649 10.0088 5.34088 10.9734 4.85346C11.3306 5.86893 11.5475 7.05276 11.5731 8.32335H7.83375V5.64969ZM7.83451 5.14183C7.83426 5.14183 7.834 5.14185 7.83375 5.14185V1.52563C7.834 1.52565 7.83426 1.52568 7.83451 1.5257C9.04414 1.65841 10.1083 2.75064 10.7897 4.37624C9.88118 4.84325 8.87826 5.1061 7.83451 5.14183ZM7.32335 1.52583V5.14178C6.27983 5.10597 5.27467 4.84315 4.3664 4.37624C5.04762 2.751 6.11401 1.65892 7.32335 1.52583ZM7.32335 5.64962V8.32335H3.58297C3.6086 7.05276 3.82546 5.86896 4.18266 4.85346C5.14707 5.34333 6.21606 5.61631 7.32335 5.64962ZM7.32335 8.83374V11.2998C6.19054 11.3331 5.10369 11.6162 4.12139 12.1214C3.79987 11.1491 3.60847 10.0288 3.58292 8.83451C3.5829 8.83425 3.5829 8.834 3.5829 8.83372H7.32335V8.83374ZM7.32335 15.6303C6.07065 15.4921 4.97361 14.326 4.29495 12.6063C5.22108 12.119 6.24924 11.8434 7.32335 11.8076V15.6303ZM9.80462 11.6212C9.17174 11.4273 8.51078 11.3176 7.83451 11.2997C7.83426 11.2997 7.834 11.2997 7.83375 11.2997V8.83372H11.5731C11.5731 8.83397 11.5731 8.83423 11.5731 8.83451C11.5654 9.15606 11.5476 9.46995 11.517 9.77873L9.81736 9.51843C9.73825 9.50567 9.65658 9.53119 9.60044 9.58989C9.54175 9.64858 9.51623 9.7277 9.52644 9.80936L9.80462 11.6212ZM14.6405 8.32335H12.0835C12.0579 6.96602 11.818 5.7005 11.4174 4.61357C11.864 4.35072 12.2851 4.03938 12.673 3.68466C13.8391 4.89921 14.5791 6.52708 14.6405 8.32335ZM12.3055 3.32994C11.9687 3.63362 11.6063 3.90413 11.2261 4.1338C10.805 3.15385 10.2461 2.35254 9.59792 1.80642C10.16 1.94716 11.2559 2.41128 12.3055 3.32994ZM5.55561 1.80642C4.90997 2.35509 4.35364 3.15385 3.92999 4.13125C3.5472 3.90158 3.18737 3.63362 2.85051 3.32994C3.7438 2.52033 4.99857 1.91789 5.55561 1.80642ZM3.73862 4.61102C3.34059 5.69795 3.0982 6.96599 3.07258 8.32335H0.518073C0.579524 6.52708 1.31696 4.89921 2.48561 3.68466C2.8735 4.04193 3.29203 4.35072 3.73862 4.61102ZM0.518022 8.83374H3.07253C3.07253 8.834 3.07253 8.83426 3.07256 8.83454C3.09808 10.1182 3.31499 11.3227 3.67737 12.369C3.21547 12.6472 2.77908 12.9789 2.37843 13.3617C1.27343 12.1623 0.576743 10.5775 0.518047 8.83454C0.518022 8.83426 0.518048 8.834 0.518022 8.83374ZM9.59792 15.3497C9.87863 15.1149 10.1415 14.8291 10.3839 14.5024C10.3865 14.5024 10.389 14.505 10.3916 14.505C10.4834 14.5356 10.583 14.5101 10.6519 14.4437L11.591 13.5046L12.0963 14.0099C11.6844 14.4224 10.2579 15.2299 9.59792 15.3497ZM14.5998 15.7912C13.6473 14.8387 12.8051 13.9965 11.7722 12.9636C11.7237 12.9151 11.6599 12.887 11.591 12.887C11.5323 12.887 11.4787 12.9075 11.4328 12.9432C11.4251 12.9483 11.4175 12.9559 11.4098 12.9636C11.3461 13.0274 10.6209 13.7525 10.6468 13.7266C10.3354 11.7144 10.0814 10.0491 10.0853 10.0748C13.6359 10.6214 12.2179 10.4044 13.7346 10.6388L12.9716 11.4018C12.9256 11.4503 12.8976 11.5141 12.8976 11.5804C12.8976 11.6493 12.9257 11.7131 12.9716 11.7616C13.972 12.762 14.7289 13.5189 15.8017 14.5918L14.5998 15.7912Z" fill="#2B4981" stroke="#2B4981" stroke-width="0.3"/>
</g>
<defs>
<clipPath id="clip0">
<rect width="16" height="16" fill="white"/>
</clipPath>
</defs>
</svg>
